<svg width="647" height="216" viewBox="0 0 647 216" fill="none" xmlns="http://www.w3.org/2000/svg">
<path d="M216.856 66.272C214.36 66.272 212.248 65.408 210.52 63.68C208.792 61.952 207.928 59.84 207.928 57.344C207.928 54.848 208.792 52.736 210.52 51.008C212.248 49.28 214.36 48.416 216.856 48.416C219.256 48.416 221.272 49.28 222.904 51.008C224.632 52.736 225.496 54.848 225.496 57.344C225.496 59.84 224.632 61.952 222.904 63.68C221.272 65.408 219.256 66.272 216.856 66.272ZM223.192 79.088V158H210.088V79.088H223.192ZM258.63 93.632C261.222 89.12 265.062 85.376 270.15 82.4C275.334 79.328 281.334 77.792 288.15 77.792C295.158 77.792 301.494 79.472 307.157 82.832C312.917 86.192 317.43 90.944 320.694 97.088C323.958 103.136 325.59 110.192 325.59 118.256C325.59 126.224 323.958 133.328 320.694 139.568C317.43 145.808 312.917 150.656 307.157 154.112C301.494 157.568 295.158 159.296 288.15 159.296C281.43 159.296 275.478 157.808 270.294 154.832C265.206 151.76 261.318 147.968 258.63 143.456V195.44H245.526V79.088H258.63V93.632ZM312.198 118.256C312.198 112.304 310.998 107.12 308.598 102.704C306.198 98.288 302.934 94.928 298.806 92.624C294.774 90.32 290.31 89.168 285.414 89.168C280.614 89.168 276.15 90.368 272.022 92.768C267.99 95.072 264.726 98.48 262.23 102.992C259.83 107.408 258.63 112.544 258.63 118.4C258.63 124.352 259.83 129.584 262.23 134.096C264.726 138.512 267.99 141.92 272.022 144.32C276.15 146.624 280.614 147.776 285.414 147.776C290.31 147.776 294.774 146.624 298.806 144.32C302.934 141.92 306.198 138.512 308.598 134.096C310.998 129.584 312.198 124.304 312.198 118.256ZM337.942 107.744C337.942 97.952 340.15 89.168 344.566 81.392C348.982 73.52 354.982 67.376 362.566 62.96C370.246 58.544 378.742 56.336 388.054 56.336C398.998 56.336 408.55 58.976 416.71 64.256C424.87 69.536 430.822 77.024 434.566 86.72H418.87C416.086 80.672 412.054 76.016 406.774 72.752C401.59 69.488 395.35 67.856 388.054 67.856C381.046 67.856 374.758 69.488 369.19 72.752C363.622 76.016 359.254 80.672 356.086 86.72C352.918 92.672 351.334 99.68 351.334 107.744C351.334 115.712 352.918 122.72 356.086 128.768C359.254 134.72 363.622 139.328 369.19 142.592C374.758 145.856 381.046 147.488 388.054 147.488C395.35 147.488 401.59 145.904 406.774 142.736C412.054 139.472 416.086 134.816 418.87 128.768H434.566C430.822 138.368 424.87 145.808 416.71 151.088C408.55 156.272 398.998 158.864 388.054 158.864C378.742 158.864 370.246 156.704 362.566 152.384C354.982 147.968 348.982 141.872 344.566 134.096C340.15 126.32 337.942 117.536 337.942 107.744ZM485.32 57.632C496.264 57.632 505.72 59.696 513.688 63.824C521.752 67.856 527.896 73.664 532.12 81.248C536.44 88.832 538.6 97.76 538.6 108.032C538.6 118.304 536.44 127.232 532.12 134.816C527.896 142.304 521.752 148.064 513.688 152.096C505.72 156.032 496.264 158 485.32 158H454.072V57.632H485.32ZM485.32 147.2C498.28 147.2 508.168 143.792 514.984 136.976C521.8 130.064 525.208 120.416 525.208 108.032C525.208 95.552 521.752 85.808 514.84 78.8C508.024 71.792 498.184 68.288 485.32 68.288H467.176V147.2H485.32ZM634.797 158H621.693L568.989 78.08V158H555.885V57.488H568.989L621.693 137.264V57.488H634.797V158Z" fill="url(#paint0_linear)"/>
<path fill-rule="evenodd" clip-rule="evenodd" d="M32.5 62.5V31H153.793L122.293 62.5H32.5ZM154.5 153V31.7071L123 63.2071V153H154.5ZM32.5 63.5H122V153H32.5V63.5ZM32.2071 154H122V185.5H0.7071L32.2071 154ZM31.5 153.293L0 184.793V63.5H31.5V153.293Z" fill="url(#paint1_linear)"/>
<defs>
<linearGradient id="paint0_linear" x1="570.138" y1="178.94" x2="501.716" y2="34.121" gradientUnits="userSpaceOnUse">
<stop offset="0.0001" stop-color="#F5A55C"/>
<stop offset="1" stop-color="#D35134"/>
</linearGradient>
<linearGradient id="paint1_linear" x1="127.993" y1="158.992" x2="31.1556" y2="50.4396" gradientUnits="userSpaceOnUse">
<stop offset="0.0001" stop-color="#F5A55C"/>
<stop offset="0.526042" stop-color="#E37947"/>
<stop offset="1" stop-color="#D35134"/>
</linearGradient>
</defs>
</svg>
